<svg width="347" height="114" viewBox="0 0 347 114" fill="none" xmlns="http://www.w3.org/2000/svg">
<g opacity="0.67">
<mask id="mask0_71_5940" style="mask-type:luminance" maskUnits="userSpaceOnUse" x="-50" y="-50" width="447" height="214">
<rect width="446" height="214" transform="translate(-49.5 -50)" fill="white"/>
<rect x="26.5" y="26" width="294" height="62" rx="31" fill="black"/>
</mask>
<g mask="url(#mask0_71_5940)">
<g filter="url(#filter0_f_71_5940)">
<path d="M26.5 59C26.5 41.8792 40.3792 28 57.5 28H289.5C306.621 28 320.5 41.8792 320.5 59V59C320.5 76.1208 306.621 90 289.5 90H57.5C40.3792 90 26.5 76.1208 26.5 59V59Z" fill="black" fill-opacity="0.04" style="mix-blend-mode:hard-light"/>
</g>
</g>
</g>
<path d="M26.5 57C26.5 39.8792 40.3792 26 57.5 26H289.5C306.621 26 320.5 39.8792 320.5 57V57C320.5 74.1208 306.621 88 289.5 88H57.5C40.3792 88 26.5 74.1208 26.5 57V57Z" fill="#333333" style="mix-blend-mode:color-dodge"/>
<path d="M26.5 57C26.5 39.8792 40.3792 26 57.5 26H289.5C306.621 26 320.5 39.8792 320.5 57V57C320.5 74.1208 306.621 88 289.5 88H57.5C40.3792 88 26.5 74.1208 26.5 57V57Z" fill="white" fill-opacity="0.5"/>
<path d="M26.5 57C26.5 39.8792 40.3792 26 57.5 26H289.5C306.621 26 320.5 39.8792 320.5 57V57C320.5 74.1208 306.621 88 289.5 88H57.5C40.3792 88 26.5 74.1208 26.5 57V57Z" fill="#F7F7F7" style="mix-blend-mode:plus-darker"/>
<rect x="26.5" y="26" width="294" height="62" rx="31" fill="black" fill-opacity="0.01"/>
<defs>
<filter id="filter0_f_71_5940" x="-13.5" y="-12" width="374" height="142" filterUnits="userSpaceOnUse" color-interpolation-filters="sRGB">
<feFlood flood-opacity="0" result="BackgroundImageFix"/>
<feBlend mode="normal" in="SourceGraphic" in2="BackgroundImageFix" result="shape"/>
<feGaussianBlur stdDeviation="10" result="effect1_foregroundBlur_71_5940"/>
</filter>
</defs>
</svg>
