<svg width="102" height="28" viewBox="0 0 102 28" fill="none" xmlns="http://www.w3.org/2000/svg">
<path d="M60.9404 3.15472H64.4109C66.771 3.15472 66.771 7.0687 64.4109 7.0687H61.1006C57.3465 7.0687 54.9587 10.3796 54.8722 13.765C54.7816 17.3069 57.1646 20.9312 61.1006 20.9312H64.4109C66.771 20.9312 66.771 24.8453 64.4109 24.8453H60.9404C54.4427 24.8453 50.766 19.3012 50.8377 13.8196C50.908 8.45778 54.5848 3.15465 60.9404 3.15465V3.15472ZM26.4751 4.92942C27.5508 6.9251 26.9126 9.47665 25.0491 10.6288C24.3973 11.0321 23.6817 11.1921 22.9812 11.1863L17.6335 11.1426C17.3729 11.1403 17.1502 11.0012 17.0203 10.7593C16.8906 10.5173 16.8903 10.2411 17.0197 9.99887L19.7579 4.87333C20.0769 4.27628 20.5578 3.7708 21.1535 3.40215C23.0168 2.2501 25.3995 2.93373 26.4752 4.92942H26.4751ZM11.869 0C14.0207 0 15.765 1.86798 15.765 4.17231C15.765 4.97852 15.5364 5.72223 15.1817 6.3691L13.3855 9.64291C13.2857 9.82499 13.2606 10.0197 13.3106 10.2239C13.3605 10.428 13.4717 10.5844 13.642 10.6907C14.7439 11.377 15.4196 12.6483 15.4175 14.0078C15.417 14.219 15.4872 14.401 15.6269 14.5501C15.7664 14.6994 15.9364 14.7741 16.1336 14.7733L19.85 14.7578C20.4922 14.7554 21.1415 14.9482 21.7373 15.3168C23.6005 16.469 24.239 19.0207 23.1632 21.0162C22.0874 23.0119 19.7048 23.6958 17.8417 22.5437C17.1897 22.1407 16.7026 21.5569 16.3569 20.9042L14.6075 17.6003C14.5098 17.4164 14.3645 17.2954 14.1738 17.24C13.9832 17.1844 13.8005 17.21 13.6295 17.3158C13.6293 17.316 13.6291 17.316 13.629 17.3161C13.4584 17.4217 13.3471 17.5777 13.2964 17.7816C13.246 17.9855 13.2705 18.1802 13.3695 18.3624L15.238 21.7977C15.5612 22.3921 15.7298 23.0905 15.7298 23.8278C15.7298 26.132 13.9856 27.9999 11.8341 27.9999C9.68255 27.9999 7.93824 26.132 7.93824 23.8278C7.93824 23.0216 8.16667 22.2778 8.52165 21.6308L10.3137 18.3642C10.4137 18.182 10.4388 17.9868 10.3887 17.7824C10.3384 17.578 10.2268 17.4215 10.056 17.3156C10.0558 17.3156 10.0557 17.3154 10.0555 17.3154C9.88496 17.2097 9.70278 17.184 9.51248 17.2389C9.32218 17.2938 9.17672 17.4141 9.07885 17.5973L7.23972 21.0398C6.92061 21.6367 6.44 22.1423 5.84401 22.5109C3.98081 23.663 1.59833 22.9792 0.522673 20.9837C-0.55312 18.988 0.0849835 16.4361 1.94819 15.284C2.60014 14.881 3.31569 14.721 4.01634 14.7266L7.54966 14.7556C7.74688 14.7573 7.91715 14.683 8.05728 14.5345C8.19748 14.3858 8.26827 14.2041 8.26861 13.9929C8.26861 13.9927 8.26861 13.9925 8.26861 13.9924C8.26907 13.7811 8.19881 13.5993 8.05928 13.4501C7.91955 13.3008 7.74961 13.226 7.55239 13.2266L3.85332 13.2421C3.21116 13.2447 2.56188 13.0517 1.96596 12.6831C0.102616 11.5311 -0.535687 8.97922 0.540173 6.98368C1.61577 4.988 3.99844 4.30422 5.86165 5.4562C6.51346 5.85942 7.00078 6.44328 7.34645 7.09578L9.09169 10.3915C9.18897 10.5751 9.33395 10.6958 9.52405 10.7516C9.71402 10.8073 9.89634 10.7824 10.0673 10.6774C10.0674 10.6773 10.0676 10.6773 10.0677 10.6771C10.2389 10.572 10.3511 10.4158 10.4021 10.2117C10.453 10.0074 10.4286 9.81223 10.3294 9.62951L8.46536 6.20248C8.14212 5.608 7.97358 4.90939 7.97358 4.17231C7.97358 1.86798 9.71768 0 11.8691 0L11.869 0ZM59.0274 12.0432H63.7666C65.9557 12.0432 65.9553 15.9571 63.7666 15.9571H59.0274C56.8389 15.9571 56.8385 12.0432 59.0274 12.0432ZM37.5896 3.15316H42.6326C46.9486 3.15316 49.1009 6.72406 49.0913 10.2849C49.0817 13.8284 46.9268 17.3652 42.6326 17.3652H41.3378C40.2922 17.3652 39.6721 16.434 39.6485 15.4823C39.6234 14.4854 40.2419 13.4643 41.3378 13.4643H42.1383C44.0514 13.4643 45.0018 11.8427 44.9914 10.2317C44.9814 8.63879 44.0293 7.05359 42.1379 7.05359L38.7627 7.05373C38.1631 7.05373 37.6741 7.57753 37.6741 8.21955C37.6741 13.1202 37.6741 18.0207 37.6741 22.9211C37.6741 25.4888 33.5735 25.4888 33.5727 22.9211L33.5725 7.45524C33.5725 5.0857 35.3771 3.15316 37.5894 3.15316H37.5896ZM86.9956 18.7301V4.99897C86.9956 2.43146 91.0971 2.43268 91.0971 4.99897V18.2095C91.0971 19.7121 92.2431 20.9418 93.6482 20.9418H99.8597C102.22 20.9418 102.219 24.8557 99.8597 24.8557H92.7152C89.567 24.8557 86.9956 22.1037 86.9956 18.7301H86.9956ZM69.9407 7.05837C67.5814 7.05837 67.5806 3.14439 69.9407 3.14439H82.4501C84.8105 3.14439 84.8096 7.05837 82.4501 7.05837H79.3153C78.7343 7.05837 78.2604 7.56598 78.2604 8.18819V22.9303C78.2604 25.4969 74.1589 25.4978 74.1589 22.9303V8.18819C74.1589 7.56591 73.685 7.05837 73.104 7.05837H69.9407Z" fill="#F2F2F7"/>
</svg>
